<svg width="180" height="56" viewBox="0 0 180 56" fill="none" xmlns="http://www.w3.org/2000/svg">
<path fill-rule="evenodd" clip-rule="evenodd" d="M43.7965 17.3683C43.6003 17.299 43.3893 17.2614 43.1694 17.2614H31.2756C30.8373 17.2614 30.4075 17.298 29.9892 17.3683C26.7668 17.9102 24.2235 20.4537 23.6816 23.6764C23.6113 24.0947 23.5747 24.5245 23.5747 24.9629V27.387C23.5747 27.6265 23.6122 27.8574 23.6816 28.0739C23.7045 28.1451 23.7308 28.2148 23.7604 28.2828C23.762 28.2865 23.7637 28.2902 23.7653 28.2939C23.7746 28.315 23.7842 28.3359 23.7942 28.3567C23.8016 28.3721 23.8091 28.3874 23.8169 28.4027C23.8391 28.4465 23.8628 28.4896 23.8878 28.5317C24.2792 29.1912 24.9983 29.6332 25.8208 29.6332H34.5636C39.8456 29.6332 44.2157 25.7284 44.945 20.6477C45.0155 20.1566 45.052 19.6546 45.052 19.144C45.052 18.9242 45.0143 18.7131 44.945 18.5169C44.756 17.9816 44.3317 17.5574 43.7965 17.3683ZM23.6919 28.6206C23.6884 28.6102 23.685 28.5998 23.6816 28.5893C23.6538 28.5026 23.6311 28.4135 23.6139 28.3226C23.6068 28.3603 23.6006 28.3984 23.5953 28.4368C23.5817 28.5368 23.5747 28.6389 23.5747 28.7427V31.9826C23.5747 32.2222 23.6122 32.453 23.6816 32.6695C23.7249 32.8042 23.7805 32.9334 23.8471 33.0557C23.888 33.1309 23.9331 33.2034 23.9821 33.273C24.3885 33.8511 25.0605 34.2289 25.8208 34.2289H33.2803C35.778 34.2289 37.8314 32.326 38.0701 29.8908C38.0776 29.815 38.0832 29.7388 38.0871 29.662C38.0147 29.6843 37.942 29.706 37.869 29.7268C36.9082 30.0016 35.8935 30.1487 34.8444 30.1487H25.8208C24.9229 30.1487 24.1481 29.6219 23.7886 28.8604C23.7704 28.8218 23.7532 28.7825 23.7371 28.7427C23.7209 28.7026 23.7058 28.6619 23.6919 28.6206ZM23.6816 34.1099C23.6117 34.3955 23.5747 34.6941 23.5747 35.0013C23.5747 35.3085 23.6117 35.607 23.6816 35.8927C24.012 37.243 25.0761 38.3055 26.4274 38.6334C26.7109 38.7022 27.0071 38.7386 27.3117 38.7386C27.6164 38.7386 27.9126 38.7022 28.1961 38.6334C29.8332 38.2361 31.0488 36.7606 31.0488 35.0013C31.0488 34.8785 31.0429 34.7572 31.0313 34.6375H25.8208C25.085 34.6375 24.4319 34.2836 24.0222 33.7369C23.9705 33.6679 23.9228 33.5959 23.8792 33.5212C23.8441 33.6024 23.8119 33.6851 23.7825 33.7691C23.7437 33.8804 23.71 33.9941 23.6816 34.1099Z" fill="white"/>
<path d="M117.933 32.1647C118.747 32.5625 119.69 32.7614 120.764 32.7614C121.838 32.7614 122.778 32.5625 123.583 32.1647C124.31 31.8095 124.89 31.328 125.325 30.7204H116.204C116.637 31.328 117.214 31.8095 117.933 32.1647Z" fill="white"/>
<path d="M115.382 28C115.382 28.2946 115.404 28.5779 115.447 28.8499H117.814C117.739 28.5897 117.701 28.3064 117.701 28C117.701 27.4398 117.827 26.9568 118.079 26.5509C118.332 26.145 118.686 25.8365 119.141 25.6254C119.597 25.4062 120.138 25.2966 120.764 25.2966C121.399 25.2966 121.944 25.4062 122.399 25.6254C122.855 25.8365 123.205 26.145 123.449 26.5509C123.701 26.9568 123.827 27.4398 123.827 28C123.827 28.3064 123.79 28.5897 123.714 28.8499H126.092C126.136 28.5779 126.158 28.2946 126.158 28C126.158 27.0502 125.93 26.218 125.475 25.5036C125.027 24.7892 124.397 24.2331 123.583 23.8353C122.778 23.4375 121.838 23.2386 120.764 23.2386C119.69 23.2386 118.747 23.4375 117.933 23.8353C117.128 24.2331 116.501 24.7892 116.054 25.5036C115.606 26.218 115.382 27.0502 115.382 28Z" fill="white"/>
<path d="M131.063 32.5665V30.7204H139.191V32.5665H131.063Z" fill="white"/>
<path d="M133.37 28.8499H131.063V23.4335H133.37V28.8499Z" fill="white"/>
<path d="M143.838 30.7204V32.5665H148.305C149.379 32.5665 150.318 32.3757 151.124 31.9942C151.798 31.6748 152.347 31.2502 152.77 30.7204H143.838Z" fill="white"/>
<path d="M153.615 28.8499C153.663 28.5781 153.687 28.2948 153.687 28C153.687 27.0826 153.459 26.283 153.003 25.601C152.556 24.9191 151.929 24.3874 151.124 24.0058C150.318 23.6242 149.379 23.4335 148.305 23.4335H143.838V28.8499H146.133V25.4671H148.476C149.062 25.4671 149.57 25.5726 150.001 25.7837C150.432 25.9948 150.766 26.287 151.002 26.6605C151.238 27.0339 151.356 27.4804 151.356 28C151.356 28.3067 151.313 28.59 151.229 28.8499H153.615Z" fill="white"/>
<path d="M110.795 28.8499H103.046V23.4335H111.015V25.394H105.353V27.2328H110.795V28.8499Z" fill="white"/>
<path d="M103.046 30.7204H105.353V32.5665H103.046V30.7204Z" fill="white"/>
<path d="M90.9882 28.8499V27.1476H85.7859L85.4887 25.3088H91.3177V23.4335H83.0071L83.7149 28L83.5831 28.8499H90.9882Z" fill="white"/>
<path d="M91.3787 32.5665V30.7204H87.3359H83.2932L83.0071 32.5665H91.3787Z" fill="white"/>
<path d="M77.9589 23.4335V28.8499H68.3913V23.4335H70.6978V26.9284H75.6646V23.4335H77.9589Z" fill="white"/>
<path d="M60.1832 28.8499V25.4671H63.7467V23.4335H54.3133V25.4671H57.8768V28.8499H60.1832Z" fill="white"/>
<path d="M57.8768 30.7204H60.1832V32.5665H57.8768V30.7204Z" fill="white"/>
<path d="M68.3913 30.7204H70.6978V32.5665H68.3913V30.7204Z" fill="white"/>
<path d="M75.6646 30.7204H77.9589V32.5665H75.6646V30.7204Z" fill="white"/>
</svg>
