<svg width="20" height="20" viewBox="0 0 20 20" fill="none" xmlns="http://www.w3.org/2000/svg">
  <path d="M10 2C10.5523 2 11 2.44772 11 3V4.26756C13.1362 4.9113 14.7377 6.73465 15.1787 8.97297L16 9C16.5523 9 17 9.44772 17 10C17 10.5523 16.5523 11 16 11L15.1787 11.027C14.7377 13.2653 13.1362 15.0887 11 15.7324V17C11 17.5523 10.5523 18 10 18C9.44772 18 9 17.5523 9 17V15.7324C6.86384 15.0887 5.26234 13.2653 4.82133 11.027L4 11C3.44772 11 3 10.5523 3 10C3 9.44772 3.44772 9 4 9L4.82133 8.97297C5.26234 6.73465 6.86384 4.9113 9 4.26756V3C9 2.44772 9.44772 2 10 2Z" fill="currentColor"/>
  <circle cx="10" cy="10" r="3" fill="white"/>
  <circle cx="10" cy="10" r="1" fill="currentColor"/>
</svg>